<?xml version="1.0" encoding="UTF-8"?>
<svg width="2011px" height="2011px" viewBox="0 0 2011 2011" version="1.1" xmlns="http://www.w3.org/2000/svg" xmlns:xlink="http://www.w3.org/1999/xlink">
    <title>Slice</title>
    <g id="Page-1" stroke="none" stroke-width="1" fill="none" fill-rule="evenodd">
        <g id="quill-(1)" transform="translate(102.657319, -0.088000)" fill-rule="nonzero">
            <path d="M911.781681,359.419 C704.197681,459.361 482.399681,593.444 332.177681,764.322 C48.4386809,1087.075 -121.804319,1603.125 105.186681,2011 C105.186681,2011 73.2656809,1759.182 298.483681,1475.442 C396.965681,1351.369 564.286681,1182.875 749.137681,1012.366 C749.138681,1012.368 888.444681,755.355 911.781681,359.419 Z" id="Path" fill="#222224"></path>
            <path d="M1777.47368,0 C1777.47368,0 1587.72368,93.988 1371.37168,172.017 C1269.56568,208.735 1096.28468,270.591 911.781681,359.419 C888.443681,755.355 749.137681,1012.367 749.137681,1012.367 C987.014681,792.946 1253.92468,570.192 1440.53368,434.476 L1452.94668,446.889 C1452.94668,446.889 1243.36368,725.827 1038.30768,943.082 C1307.44368,994.68 1541.80568,923.478 1619.19668,895.419 C1760.60968,606.234 1854.27268,256.406 1777.47368,0 Z" id="Path" fill="#FDD23C"></path>
            <path d="M1038.30868,943.082 C1020.97968,961.441 1003.68568,979.36 986.551681,996.633 C766.653681,1218.304 415.526681,1585.391 323.311681,1695.34 C231.096681,1805.289 183.215681,1924.105 183.215681,1924.105 C183.215681,1924.105 278.977681,1776.916 605.277681,1709.528 C931.577681,1642.14 1190.48968,1521.55 1419.25368,1223.625 C1488.22868,1133.797 1558.15868,1020.251 1619.19768,895.42 C1541.80668,923.479 1307.44468,994.68 1038.30868,943.082 Z" id="Path" fill="#222224"></path>
        </g>
    </g>
</svg>